<svg xmlns="http://www.w3.org/2000/svg" xmlns:xlink="http://www.w3.org/1999/xlink" viewBox="0 0 443.57 143.19"><defs><style>.cls-1{fill:none;}.cls-2{isolation:isolate;}.cls-3{clip-path:url(#clip-path);}.cls-4{fill:#86be43;}.cls-5{fill:#87be3f;}.cls-6{clip-path:url(#clip-path-2);}.cls-7{fill:#499f35;}.cls-8{fill:#4c9f34;}</style><clipPath id="clip-path" transform="translate(-0.29 -2.01)"><path class="cls-1" d="M0,72.48A49.58,49.58,0,0,1,.33,66c.22-1.74.45-4.07.75-5.79.33-1.87.87-4.35,1.35-6.19.43-1.65,1.1-3.83,1.67-5.44.63-1.78,1.63-4.1,2.34-5.85A48.08,48.08,0,0,1,9.37,37c1.67-2.83,4.13-6.47,6.08-9.11a48.23,48.23,0,0,1,4.38-5.08c1.12-1.12,2.58-2.66,3.76-3.71,1.66-1.48,4-3.36,5.71-4.73A72,72,0,0,1,37.57,9a60.09,60.09,0,0,1,7.5-3.61c1.52-.59,3.55-1.36,5.1-1.86s3.71-1.09,5.31-1.5A73,73,0,0,1,64.84.42,73.18,73.18,0,0,1,83.2.78c1.44.21,3.28.54,4.35.77,1.47.32,3.42.82,4.88,1.21a68.72,68.72,0,0,1,8.55,3c2.29,1,5.23,2.51,7.43,3.68,17.72,10.07,29.4,30,29.35,54.38-.07,38.5-29.3,73.64-65.28,78.48,36-4.84,65.21-40,65.28-78.48.05-24.41-11.63-44.31-29.35-54.38A65.48,65.48,0,0,1,114,13c1.2.9,2.84,2.05,4,3a62.39,62.39,0,0,1,4.73,4.15c1.12,1.15,2.66,2.63,3.73,3.83,1.24,1.39,2.84,3.29,4,4.78a70.68,70.68,0,0,1,6.27,9.81,71.76,71.76,0,0,1,4.67,10.8,96.17,96.17,0,0,1,2.79,11.12c.36,1.87.62,4.41.78,6.31s.16,4.15.22,5.93a52.61,52.61,0,0,1-.36,7.21c-.21,1.74-.5,4-.82,5.77s-.9,4.33-1.41,6.16c-.45,1.65-1.13,3.82-1.72,5.42-.65,1.78-1.67,4.09-2.4,5.83a50.39,50.39,0,0,1-2.54,5c-.95,1.67-2.35,3.82-3.38,5.44a52.47,52.47,0,0,1-4.14,5.48,81.26,81.26,0,0,1-7.34,7.62c-1.69,1.48-4,3.35-5.81,4.71-1.18.88-2.83,1.94-4.06,2.74a80,80,0,0,1-8.16,4.44,69.53,69.53,0,0,1-10.76,4A72.42,72.42,0,0,1,30.4,131.63c-1.54-1.16-3.64-2.66-5.06-4-1.16-1.07-2.75-2.45-3.87-3.58-1.32-1.32-3-3.16-4.24-4.58a97.69,97.69,0,0,1-6.43-8.84c-1-1.56-2.19-3.78-3.05-5.45A53.34,53.34,0,0,1,5.22,99.6,111.85,111.85,0,0,1,1.83,88.74,97.16,97.16,0,0,1,.26,78.41C.07,76.64.06,74.26,0,72.48Z"/></clipPath><clipPath id="clip-path-2" transform="translate(-0.29 -2.01)"><path class="cls-1" d="M36.82,135.74c-1.26-.73-2.94-1.71-4.14-2.54-1.9-1.31-4.4-3.13-6.21-4.58a92.09,92.09,0,0,1-7.64-7.28A49.25,49.25,0,0,1,14.42,116c-1.1-1.58-2.6-3.68-3.62-5.31-.88-1.41-2-3.36-2.73-4.84-.87-1.67-1.92-4-2.64-5.71-.65-1.57-1.36-3.72-1.94-5.31a45.8,45.8,0,0,1-1.66-6.07A102.07,102.07,0,0,1,.18,77.22a61.2,61.2,0,0,1,.1-10.66c.23-1.9.41-4.45.8-6.32.36-1.69.77-4,1.21-5.64a57.3,57.3,0,0,1,1.81-6c.61-1.57,1.38-3.69,2.06-5.24.77-1.71,1.87-3.95,2.77-5.6a73.17,73.17,0,0,1,6.52-9.89A97,97,0,0,1,22.6,20c1.4-1.31,3.32-3,4.81-4.18,1.15-.94,2.74-2.13,4-3,1.66-1.11,3.92-2.52,5.64-3.53,1.1-.65,2.6-1.43,3.75-2A71,71,0,0,1,53.09,2.69,72.34,72.34,0,0,1,81.37.53a73.41,73.41,0,0,1,14,3.15,66.14,66.14,0,0,1,7.37,2.9c1.73.77,4,2,5.62,2.88A56.28,56.28,0,0,0,72.74,2.88a56.28,56.28,0,0,1,35.67,6.58h0a96,96,0,0,1,8.23,5.44c1.6,1.27,3.7,3,5.22,4.39,1.18,1.07,2.7,2.57,3.78,3.75,1.34,1.48,3.08,3.49,4.31,5.05,1,1.29,2.29,3.09,3.2,4.46A69,69,0,0,1,138.91,43c.77,1.72,1.69,4.06,2.31,5.84.57,1.61,1.16,3.81,1.65,5.45a42.23,42.23,0,0,1,1.32,6.18c.22,1.74.59,4,.73,5.79.16,1.93.27,4.52.27,6.45a87,87,0,0,1-1,11.73,53.36,53.36,0,0,1-1.48,6.86c-1.65,5.47-2.41,8-4,11.18-.74,1.5-1.69,3.52-2.5,5s-2.17,3.73-3.2,5.28a70.58,70.58,0,0,1-7.23,9.17,72.27,72.27,0,0,1-8.58,7.88c-1.17.91-2.75,2.09-4,2.91-1.67,1.1-4,2.48-5.71,3.49a78.94,78.94,0,0,1-8.22,3.88,74.37,74.37,0,0,1-10.51,3.26,72.77,72.77,0,0,1-13.61,1.8,73.71,73.71,0,0,1-13.17-.73,72.08,72.08,0,0,1-12.24-2.9,67.49,67.49,0,0,1-7.37-2.91C40.71,137.84,38.45,136.69,36.82,135.74Z"/></clipPath></defs><g id="Calque_2" data-name="Calque 2"><g id="Calque_2-2" data-name="Calque 2"><g class="cls-2"><g class="cls-2"><g class="cls-3"><path class="cls-4" d="M52.72,2.94c3.07.28,8.83,2,11.6,2.85A46,46,0,0,0,55.74,2c-1.06.27-2.49.64-3.54.94.15,0,.36,0,.52,0" transform="translate(-0.29 -2.01)"/><path class="cls-4" d="M113.33,12.62c1.21.83,2.82,1.93,4,2.81a69.77,69.77,0,0,0-8.91-6,52.73,52.73,0,0,1,4.92,3.16" transform="translate(-0.29 -2.01)"/><path class="cls-5" d="M37.19,9.7c2.12-.25,9.16,0,28.65,7.34C52,8.33,41.6,7,41.51,7c-1.84.94-4.27,2.22-6.06,3.25a7.26,7.26,0,0,1,1.74-.56" transform="translate(-0.29 -2.01)"/><path class="cls-4" d="M125.6,24.79c4.9,4.44,6.15,5.76,9.53,10.91-1.5-2.32-3.54-5.39-5.18-7.61L127,24.55a42.08,42.08,0,0,0-6.79-6,56.87,56.87,0,0,1,5.38,6.28" transform="translate(-0.29 -2.01)"/><path class="cls-5" d="M19.44,23.73C27,20.34,54.37,31.52,59.77,33.8,47.14,24.89,26.53,17,23.69,19l-.1.1c-1.71,1.68-4,3.94-5.59,5.72a6.78,6.78,0,0,1,1.44-1.08" transform="translate(-0.29 -2.01)"/><path class="cls-5" d="M135.09,44.24c3.44,4.16,7.35,8.89,9.26,17.28l-.16-1c-1.57-7.48-1.6-7.62-3-11.63l-.3-.87c-1.68-3.74-3.51-7.25-9-12.36a63,63,0,0,1,3.16,8.62" transform="translate(-0.29 -2.01)"/><path class="cls-5" d="M7.62,41.54c5.49-4.5,25.59-2.3,56.74,13.16C44.68,39,14,29.78,10.72,34.69L8.93,37.77C8,39.55,6.82,41.9,6,43.71a8.84,8.84,0,0,1,1.6-2.17" transform="translate(-0.29 -2.01)"/><path class="cls-5" d="M137.76,63.67c2.55,4.06,7.83,12.49,6.18,22.43l.07-.4c1-7.39,1.13-8,1.18-13v-.93c-.31-3.32-.9-9.51-8-17.64a74,74,0,0,1,.61,9.52" transform="translate(-0.29 -2.01)"/><path class="cls-5" d="M1.52,63.64c7.42-6.84,39.77,4.85,58.41,13.83C42.22,63.84,4.57,48.74,1.94,56l-.86,4.21C.84,62.1.46,64.57.29,66.44a5.25,5.25,0,0,1,1.23-2.8" transform="translate(-0.29 -2.01)"/><path class="cls-5" d="M134,87.7c5.48,12.55,2.68,19.43.1,23.52l1.87-3.15c3.4-6.64,3.4-6.64,4.73-10.22.76-2.66,2.78-9.71-4.24-19.88A78.73,78.73,0,0,1,134,87.7" transform="translate(-0.29 -2.01)"/><path class="cls-5" d="M2.23,87.56C5.16,77.73,37.33,83.4,66,98.8,45.39,81.57.62,68.18.33,79.18c.37,2.88.93,6.71,1.5,9.56l.48,2a8.69,8.69,0,0,1-.08-3.17" transform="translate(-0.29 -2.01)"/><path class="cls-5" d="M125.62,105.9c2.86,11.85-2.6,19.26-7.69,23.38l3.15-2.67c5-4.78,5.15-5,7.63-8,7.09-8.76,2.86-18.35,1.4-21.09a85.8,85.8,0,0,1-4.49,8.35" transform="translate(-0.29 -2.01)"/><path class="cls-5" d="M11.52,111.81c-4.4-8,6.73-10.1,25.89-5a122.86,122.86,0,0,1,27.29,11C51,106.36,19.77,94.76,6.56,98.59a3.21,3.21,0,0,0-.42,3.2c1.31,2.71,3.16,6.27,4.66,8.88l.92,1.45-.2-.31" transform="translate(-0.29 -2.01)"/><path class="cls-5" d="M110.51,124.12c-1.69,13.72-16.22,17.82-17.87,18.24,3.18-1,3.84-1.17,6.7-2.27a77.41,77.41,0,0,0,9.84-4.8c10.17-6.39,9.11-14.82,8.18-18.15a82.09,82.09,0,0,1-6.85,7" transform="translate(-0.29 -2.01)"/><path class="cls-4" d="M27.48,129.33c-5.68-5.47-2.16-8,3-8.6,8.15-.9,28,3.43,39.43,12C58.27,120.08,17.37,109,17.2,118.39c0,.85,0,.89,1.31,2.59,4.88,5.06,5,5.16,8,7.64l3.23,2.5c-.67-.53-1.61-1.19-2.22-1.79" transform="translate(-0.29 -2.01)"/><path class="cls-4" d="M94.58,135.24a14.24,14.24,0,0,1-5.81,4.58,31.85,31.85,0,0,1-9.93,3.08,11.89,11.89,0,0,0-1.68.3c-.56.37-.38,1.28-1.11,1.52a9,9,0,0,1-3.31.47l2.48,0c2.19-.11,2.19-.11,3.34-.2,2.31-.22,2.5-.24,3.73-.41L84,144.3c8.26-1.35,17.66-7.22,18.48-13.8a75,75,0,0,1-7.87,4.74" transform="translate(-0.29 -2.01)"/></g></g><g class="cls-2"><g class="cls-6"><path class="cls-7" d="M108.41,9.46a72,72,0,0,1,8.91,6c24.25,20.22-4.7,24.24-5,24.27A68.67,68.67,0,0,1,72,30.08c-4.39-2.64-12.31-7.81-16-12.92a14.87,14.87,0,0,1-2.85-5.92c-.46-2.31.51-4.54.33-6.84C53,4,52.52,3.56,52,3.15L52.2,3c1.06-.29,2.47-.68,3.54-.94.89.08,8.71.89,9.59,2.11C57.72,19,92.49,31.6,109.88,27.32c6.26-1.53,14.28-7.81-.86-17.4-.88-.55-2.08-1.24-3-1.74.81.41,1.6.83,2.39,1.28" transform="translate(-0.29 -2.01)"/><path class="cls-7" d="M130,28.09c1.61,2.24,3.71,5.27,5.18,7.61,13.24,24-19.64,30.58-48.11,22.18C52.94,47.83,23.6,17.64,35.45,10.26c1.8-1,4.21-2.33,6.06-3.25l-.16.51.74.47C42.5,10.8,59,35.3,79,42.26s43.57,8.56,51.84-3.36c.39-.55,3.58-5.7-3.81-14.35L130,28.09" transform="translate(-0.29 -2.01)"/><path class="cls-7" d="M141.22,48.85c2.16,7.13,2.24,7.41,3,11.63l.16,1c2.83,36.91-71.48,21.67-114.25-15.4C16.37,34.22,15.94,28,18,24.81c1.64-1.75,3.85-4.07,5.59-5.72l.1-.1c-.6,5,34.5,33.61,61.33,44.1,11.86,4.64,39.83,8.66,51-.18,4.45-3.53,7.64-6.87,4.89-14.93l.3.87" transform="translate(-0.29 -2.01)"/><path class="cls-7" d="M145.19,72.72c-.32,7.68-.34,8.14-1.18,13l-.07.4c-4.56,17.21-25.77,23.47-55.35,16.33C69.66,97.87,18.27,71.12,7.86,53.28,4.69,47.85,5.56,45.15,6,43.71c.86-1.79,2-4.19,2.91-5.94l1.79-3.08c-4.19,9.7,54.37,44.45,59.47,46.69C107.93,97.91,129,90,132.85,88.2,144.5,82.86,145,75.38,145.19,71.79v.93" transform="translate(-0.29 -2.01)"/><path class="cls-7" d="M135.94,108.07l-1.87,3.15C108.58,145.48,6.34,90.27.53,68.8a9.37,9.37,0,0,1-.24-2.36c.24-1.86.48-4.35.79-6.2L1.94,56c-.45,9.41,64.68,44.51,78.74,49.56,18.2,6.54,43.25,8.9,55.27-1.37a14.83,14.83,0,0,0,4.72-6.37c-2.73,6.57-3,7.26-4.73,10.22" transform="translate(-0.29 -2.01)"/><path class="cls-7" d="M121.08,126.61l-3.15,2.67C87.2,151.46,7.27,106.29,2.31,90.73l-.48-2C1.3,85.89.66,82.07.33,79.18c4,14.13,99.62,71,128.38,39.46-4.3,4.86-5.07,5.73-7.63,8" transform="translate(-0.29 -2.01)"/><path class="cls-7" d="M99.34,140.09c-3.24,1.21-3.74,1.4-6.7,2.27C73.83,146.55,20,124.69,11.72,112.12l-.92-1.45c-1.48-2.62-3.37-6.16-4.66-8.88,5,7.82,76.23,47.92,103,33.5a76.9,76.9,0,0,1-9.84,4.8" transform="translate(-0.29 -2.01)"/><path class="cls-8" d="M82.29,144.54c-2.46.3-2.46.3-3.73.41-2.16.15-2.34.16-3.34.2-.74,0-1.73,0-2.48,0-9.61-.13-31.92-6.09-43-14.07l-3.23-2.5c-5.14-4.56-5.34-4.74-8-7.64,8.8,8.67,50.1,25.44,65.46,23.32l-1.68.24" transform="translate(-0.29 -2.01)"/></g></g></g><path class="cls-7" d="M195.52,76.93a79.7,79.7,0,0,1-11.25-5.25,33.22,33.22,0,0,1-8.48-6.83,28.08,28.08,0,0,1-5.44-9.49,40.34,40.34,0,0,1-1.94-13.27,40.23,40.23,0,0,1,3.23-16.6,32.84,32.84,0,0,1,9.13-12.07A39.88,39.88,0,0,1,195,6a64.72,64.72,0,0,1,18.63-2.49,89.23,89.23,0,0,1,17.6,1.66q5.9,1.2,12.23,3.15a6.18,6.18,0,0,1,4.2,7.1,64.25,64.25,0,0,1-2.7,9.77,6.11,6.11,0,0,1-8,3.6l-.05,0A43.74,43.74,0,0,0,230.82,27a67.81,67.81,0,0,0-7.28-1.2,81.77,81.77,0,0,0-9.22-.46,37.44,37.44,0,0,0-6.36.55,17.72,17.72,0,0,0-5.81,2,11.61,11.61,0,0,0-4.24,4.33,14.87,14.87,0,0,0-1.66,7.47,13.34,13.34,0,0,0,1.29,6.18,13,13,0,0,0,3.51,4.24,21.9,21.9,0,0,0,5,3c1.84.8,3.68,1.56,5.53,2.3l11.06,4.24a137.46,137.46,0,0,1,12.72,5.72A34.2,34.2,0,0,1,245,72.6a30.8,30.8,0,0,1,6.18,10.51,45.6,45.6,0,0,1,2.21,15.21A42.1,42.1,0,0,1,250,115.46a36.91,36.91,0,0,1-9.87,13.28,46.38,46.38,0,0,1-15.94,8.66,69.73,69.73,0,0,1-21.85,3.14c-4.06,0-7.68-.13-10.88-.37a83.69,83.69,0,0,1-9.13-1.2,82.45,82.45,0,0,1-8.57-2.12c-1.32-.4-2.68-.84-4-1.33a6.19,6.19,0,0,1-4.08-6.92q.52-3,1.31-6c.45-1.79.95-3.58,1.48-5.39a6.18,6.18,0,0,1,7.94-4.1,89.55,89.55,0,0,0,8.65,2.49,65.13,65.13,0,0,0,14.56,1.56q11.63,0,18.25-4.33t6.64-13.18a15.69,15.69,0,0,0-1.56-7.38,16.15,16.15,0,0,0-4.06-5,24.35,24.35,0,0,0-5.62-3.41c-2.1-.93-4.24-1.82-6.46-2.68Z" transform="translate(-0.29 -2.01)"/><path class="cls-7" d="M278.92,5.76h63.76a6.16,6.16,0,0,1,6.13,5.55,57,57,0,0,1,.28,5.7q0,3.15-.29,6.15a6.13,6.13,0,0,1-6.12,5.47H305.83a6.15,6.15,0,0,0-6.15,6.15V53.63a6.16,6.16,0,0,0,6.15,6.16H332.7a6.18,6.18,0,0,1,6.14,5.56,58.58,58.58,0,0,1,.3,5.87q0,3-.3,6a6.16,6.16,0,0,1-6.13,5.57H305.83A6.16,6.16,0,0,0,299.68,89v43.93a6.16,6.16,0,0,1-5.57,6.13q-4,.39-7.7.39c-2.66,0-5.33-.12-8-.38a6.19,6.19,0,0,1-5.66-6.13v-121A6.16,6.16,0,0,1,278.92,5.76Z" transform="translate(-0.29 -2.01)"/><path class="cls-7" d="M372.39,5.76h63.76a6.16,6.16,0,0,1,6.14,5.55c.18,1.89.28,3.79.28,5.7q0,3.15-.3,6.15a6.12,6.12,0,0,1-6.12,5.47H399.31a6.15,6.15,0,0,0-6.15,6.15V51.24a6.15,6.15,0,0,0,6.15,6.15h26.86A6.18,6.18,0,0,1,432.31,63a58.73,58.73,0,0,1,.3,5.87q0,3-.3,6.05a6.16,6.16,0,0,1-6.13,5.56H399.31a6.15,6.15,0,0,0-6.15,6.16v22.72a6.15,6.15,0,0,0,6.15,6.15h38.13a6.16,6.16,0,0,1,6.14,5.55c.18,1.89.28,3.79.28,5.7q0,3.15-.3,6.15a6.12,6.12,0,0,1-6.12,5.47H372.39a6.15,6.15,0,0,1-6.15-6.16V11.92A6.15,6.15,0,0,1,372.39,5.76Z" transform="translate(-0.29 -2.01)"/></g></g></svg>